<svg id="Layer_1" data-name="Layer 1" xmlns="http://www.w3.org/2000/svg" xmlns:xlink="http://www.w3.org/1999/xlink" viewBox="0 0 540.39 111.05"><defs><style>.cls-1{fill:none;}.cls-2{fill:#1b75bb;}.cls-3{fill:url(#New_Pattern_Swatch_3);}</style><pattern id="New_Pattern_Swatch_3" data-name="New Pattern Swatch 3" width="168.66" height="168.66" patternUnits="userSpaceOnUse" viewBox="0 0 168.66 168.66"><rect class="cls-1" width="168.66" height="168.66"/><rect class="cls-2" width="168.66" height="168.66"/></pattern></defs><title>SVG_2Logo+Typo_NewShareLook Logo</title><path class="cls-3" d="M256.07,337.72H245.64v-84.2h10.19v35l.49.23,1.7-2.08c8-9.73,22.85-10.42,30.87-1.4A21.12,21.12,0,0,1,294.32,299c.29,12.82.1,25.65.1,38.67H284.13c0-5.06,0-10.08,0-15.09-.08-7.38,0-14.78-.44-22.15-.52-8.51-6.95-13.9-14.55-12.71A15.26,15.26,0,0,0,256,302.91c-.05,10.56,0,21.12,0,31.67Z" transform="translate(-159.34 -247.22)"/><path class="cls-3" d="M699.74,337.34c-4.35,0-8.15.11-11.93-.08-.8,0-1.71-1-2.28-1.81-5.59-7.67-11.12-15.38-16.68-23.08-.56-.78-1.15-1.52-1.88-2.49-1.68,1.85-3.32,3.51-4.75,5.33a4.43,4.43,0,0,0-.53,2.49c0,6.42,0,12.83,0,19.45h-10.3V253h10.22v53.08c4.18-5,8-9.57,11.82-14.13,3-3.6,6-7.24,9.18-10.74a4.85,4.85,0,0,1,3-1.41c3.4-.17,6.81-.06,10.85-.06-7.55,8.06-14.76,15.78-22.13,23.67C682.69,314.57,691,325.71,699.74,337.34Z" transform="translate(-159.34 -247.22)"/><path class="cls-3" d="M175.06,358.24V336.87c5.07-1,10.13-1.68,15-3,10.89-2.94,20.6-7.94,27.18-17.55,4.92-7.19,6.37-14.77,1.51-22.68-2.4-3.9-6.13-6.14-10.18-8-.65-.3-1.28-.62-1.91-.95-.05,0-.05-.15-.14-.53,11.25,2.27,21.78,5.51,27.32,16.65,3.49,7,2.37,14.2-.83,21.08-5.48,11.78-14.76,20-25.6,26.56a70.29,70.29,0,0,1-30,9.74C176.69,358.3,176,358.24,175.06,358.24Z" transform="translate(-159.34 -247.22)"/><path class="cls-3" d="M516.88,309c.29-10.94,3.5-20.54,13.4-26.5C546,273,570.58,279.25,573,304c1,10.5-.9,20.22-9.15,27.48-8.65,7.59-18.86,9.21-29.55,5.26-10.23-3.78-15.42-11.86-17-22.45-.16-1-.31-2.09-.4-3.13C516.83,310.45,516.88,309.71,516.88,309Zm45.52-2.12A26.43,26.43,0,0,0,559,294.62a15.82,15.82,0,0,0-27.08-1.39c-5.85,8.33-5.8,22.27.09,30.54,6.44,9,18.71,9.3,25.51.54C561.09,319.69,562.33,314.33,562.4,306.86Z" transform="translate(-159.34 -247.22)"/><path class="cls-3" d="M581.62,309.38c.46-11.83,3.92-21.67,14.44-27.43,16-8.75,39.36-2,41.76,21.92.88,8.68-.42,16.83-5.71,24-6.59,8.93-19.19,12.92-30.57,9.78a26.85,26.85,0,0,1-19.38-23.18C582,312.61,581.77,310.75,581.62,309.38Zm45.63-1.62a26.75,26.75,0,0,0-3.48-13.26c-5.6-9.85-19.28-11.06-26.23-2.33-6.65,8.35-6.86,23.36-.45,31.91,6.54,8.73,18.5,8.88,25.21.3C625.91,319.78,627.17,314.43,627.25,307.76Z" transform="translate(-159.34 -247.22)"/><path class="cls-3" d="M453.76,310.56H413.14a17.8,17.8,0,0,0,15.57,19.49,41.13,41.13,0,0,0,19.83-2.62c.54,2.3,1.17,4.46,1.48,6.67.07.47-.91,1.36-1.57,1.61a47.92,47.92,0,0,1-19.61,2.69c-13.71-.82-22.69-8.22-25.3-21.62-2.24-11.54-.39-22.45,8.21-31.14,7.21-7.3,16.25-8.94,25.87-6.08,9.16,2.72,13.5,9.93,15.23,18.8C453.59,302.2,453.46,306.2,453.76,310.56Zm-10.49-7.87c.22-10.12-5.27-16.53-14-16.64s-16,7.5-16,16.64Z" transform="translate(-159.34 -247.22)"/><path class="cls-3" d="M218.81,247.23v18.65c-7,1.75-13.83,3-20.38,5.22-10,3.39-18.44,9.17-23.51,18.85a21.83,21.83,0,0,0-.9,19.63c2.21,5.12,6.36,8,11.22,10.2.73.33,1.46.67,2.18,1,.06,0,.08.13.11.21-14.34.69-28.07-12.23-28.19-26.34-.07-9,3.53-16.39,9.32-22.82,13.09-14.54,29.37-22.9,49-24.62C217.92,247.2,218.24,247.23,218.81,247.23Z" transform="translate(-159.34 -247.22)"/><path class="cls-3" d="M341.62,301.26c1-9.12-3.86-14.61-12.51-14.59A29.55,29.55,0,0,0,313.88,291c-.83-2.35-1.61-4.52-2.55-7.18a88,88,0,0,1,8.25-3.34,36.54,36.54,0,0,1,16.6-1.12,18.52,18.52,0,0,1,15.74,17.84c.51,9.8.36,19.63.58,29.45.08,3.64.39,7.28.61,11.07h-9.29c-.3-2.15-.61-4.41-1-7.11a23.07,23.07,0,0,1-12.41,8c-8.15,2-16.27-.58-20.23-6.5-5.4-8.06-3.07-19.28,5.23-24.86,6.27-4.21,13.44-5.4,20.77-5.9C338,301.16,339.74,301.26,341.62,301.26Zm.6,7.32c-2.38,0-4.49-.16-6.56,0-4.92.48-9.85,1.13-13.89,4.38-3.27,2.62-4.34,6.17-3.76,10.2a8.7,8.7,0,0,0,6.24,7.63c8,2.54,17.29-3.62,17.93-12C342.43,315.53,342.22,312.2,342.22,308.58Z" transform="translate(-159.34 -247.22)"/><path class="cls-3" d="M466.82,337.17V257.24h10.39v71.32h34.14v8.61Z" transform="translate(-159.34 -247.22)"/><path class="cls-3" d="M379.31,337.22H368.87V280h8.95v10.55l.58.09c.52-1.05,1-2.12,1.56-3.13,3.29-5.66,8-9,14.75-9.15,1.87,0,2.86.44,2.69,2.61-.2,2.41,0,4.86,0,7.43a7.23,7.23,0,0,1-1.46.14c-9.68-1.2-15.19,6.13-16,13.38-.66,6-.48,12.15-.57,18.23-.08,4.95,0,9.91,0,14.86Z" transform="translate(-159.34 -247.22)"/><path class="cls-3" d="M212.06,302a14.88,14.88,0,1,1-14.8-14.9A14.88,14.88,0,0,1,212.06,302Zm-7.78-8.39a3.72,3.72,0,0,0-3.43,3.18,3.79,3.79,0,0,0,3.31,3.32,3.37,3.37,0,0,0,3.34-3.2A3.33,3.33,0,0,0,204.28,293.65Z" transform="translate(-159.34 -247.22)"/></svg>